
<svg width="200" height="400" viewBox="0 0 200 400" xmlns="http://www.w3.org/2000/svg">
    <!-- Background Circle -->
    <circle cx="100" cy="100" r="90" fill="#A78BFA" opacity="0.3"/>

    <!-- Hair -->
    <path d="M50 100 C50 60, 150 60, 150 100 Q140 130, 110 140 Q60 130, 50 100" fill="#6B21A8"/>

    <!-- Face -->
    <circle cx="100" cy="130" r="40" fill="#F4CBB9"/>
    
    <!-- Eyes -->
    <circle cx="85" cy="125" r="5" fill="#3B0D75"/>
    <circle cx="115" cy="125" r="5" fill="#3B0D75"/>

    <!-- Mouth -->
    <path d="M85 145 Q100 155, 115 145" stroke="#3B0D75" stroke-width="2" fill="none"/>

    <!-- Body -->
    <path d="M75 180 Q100 210, 125 180 L120 300 Q90 320, 80 300 L75 180" fill="#A78BFA"/>

    <!-- Arms -->
    <path d="M75 190 Q50 230, 70 260" stroke="#6B21A8" stroke-width="5" fill="none"/>
    <path d="M125 190 Q150 230, 130 260" stroke="#6B21A8" stroke-width="5" fill="none"/>

    <!-- Legs -->
    <rect x="85" y="300" width="10" height="50" fill="#6B21A8"/>
    <rect x="105" y="300" width="10" height="50" fill="#6B21A8"/>

    <!-- Shoes -->
    <rect x="85" y="350" width="10" height="10" fill="#3B0D75"/>
    <rect x="105" y="350" width="10" height="10" fill="#3B0D75"/>
</svg>
